<?xml version="1.0" encoding="UTF-8" standalone="no"?>
<!DOCTYPE svg PUBLIC "-//W3C//DTD SVG 1.1//EN" "http://www.w3.org/Graphics/SVG/1.1/DTD/svg11.dtd">
<svg width="100%" height="100%" viewBox="0 0 658 375" version="1.1" xmlns="http://www.w3.org/2000/svg" xmlns:xlink="http://www.w3.org/1999/xlink" xml:space="preserve" xmlns:serif="http://www.serif.com/" style="fill-rule:evenodd;clip-rule:evenodd;stroke-linecap:round;stroke-linejoin:round;stroke-miterlimit:1.5;">
    <g transform="matrix(1,0,0,1,-655.777,-518.345)">
        <g transform="matrix(1,0,0,1,63.9794,-33.9326)">
            <rect x="0" y="-10.656" width="1616.92" height="1090.66" style="fill:rgb(25,28,25);"/>
        </g>
        <g transform="matrix(1,0,0,1,-392.967,-42.0265)">
            <path d="M602.344,432.786C617.417,424.17 627.584,407.936 627.584,389.346C627.584,407.737 637.536,423.823 652.344,432.507C659.754,436.853 668.38,439.346 677.584,439.346C686.59,439.346 695.042,436.96 702.344,432.786C717.417,424.17 727.584,407.936 727.584,389.346C727.584,391.339 727.701,393.306 727.929,395.239C727.884,393.286 727.861,391.328 727.861,389.364C727.867,407.691 737.755,423.726 752.482,432.426C759.849,436.779 768.427,439.295 777.584,439.345C777.677,439.345 777.769,439.345 777.861,439.345C786.763,439.297 795.117,436.917 802.344,432.786C817.417,424.17 827.584,407.936 827.584,389.346C827.584,390.605 827.631,391.853 827.723,393.088C827.814,391.853 827.861,390.605 827.861,389.346C827.861,407.68 837.751,423.723 852.482,432.426C859.849,436.779 868.427,439.295 877.584,439.345C877.677,439.345 877.769,439.345 877.861,439.345C886.763,439.297 895.117,436.917 902.344,432.786C917.412,424.173 927.578,407.946 927.584,389.364C927.584,391.328 927.562,393.286 927.517,395.239C927.744,393.306 927.861,391.339 927.861,389.346C927.861,407.68 937.751,423.723 952.482,432.426C959.923,436.822 968.6,439.346 977.861,439.346C986.809,439.346 995.212,436.99 1002.48,432.865C1017.63,424.27 1027.86,407.993 1027.86,389.346C1027.86,407.68 1037.75,423.723 1052.48,432.426C1058.38,435.907 1065.04,438.214 1072.16,439.024C1054.11,528.449 988.271,600.646 902.482,627.78C875.256,619.169 850.04,606.019 827.723,589.221C805.236,606.147 779.806,619.368 752.344,627.975C666.292,601.006 600.2,528.73 582.069,439.147C589.394,438.494 596.268,436.259 602.344,432.786Z" style="fill:rgb(173,224,241);"/>
            <g transform="matrix(1.04824,0,0,1.04824,-105.863,-95.3615)">
                <path d="M1128.53,462.418C1128.53,594.047 1021.66,700.913 890.031,700.913C758.402,700.913 651.536,594.047 651.536,462.418C651.545,488.736 672.915,510.1 699.235,510.1C725.561,510.1 746.934,488.727 746.934,462.401C746.934,488.727 768.307,510.1 794.633,510.1C820.959,510.1 842.332,488.727 842.332,462.401C842.332,488.727 863.705,510.1 890.031,510.1C916.357,510.1 937.73,488.727 937.73,462.401C937.73,488.727 959.103,510.1 985.429,510.1C1011.75,510.1 1033.13,488.727 1033.13,462.401C1033.13,488.727 1054.5,510.1 1080.83,510.1C1107.15,510.1 1128.52,488.736 1128.53,462.418Z" style="fill:rgb(200,233,246);"/>
            </g>
            <g transform="matrix(0.825542,0,0,0.825542,81.6865,60.274)">
                <path d="M780.135,675.492C716.683,647.276 664.7,597.879 633.185,536.3C649.599,528.098 660.883,511.128 660.883,491.545C660.883,519.14 683.287,541.545 710.883,541.545C738.478,541.545 760.883,519.14 760.883,491.545C760.883,494.753 761.185,497.891 761.764,500.931C761.649,497.823 761.591,494.699 761.591,491.563C761.601,519.032 783.81,541.353 811.237,541.543C838.664,541.353 860.873,519.032 860.883,491.563C860.883,494.699 860.825,497.823 860.71,500.931C861.289,497.891 861.591,494.753 861.591,491.545C861.591,519.14 883.996,541.545 911.591,541.545C939.187,541.545 961.591,519.14 961.591,491.545C961.591,519.14 983.996,541.545 1011.59,541.545C1039.19,541.545 1061.59,519.14 1061.59,491.545C1061.59,519.14 1084,541.545 1111.59,541.545C1139.19,541.545 1161.59,519.14 1161.59,491.545C1161.59,505.71 1167.5,518.508 1176.97,527.609C1128.5,630.321 1023.97,701.466 902.942,701.466C893.074,701.466 883.314,700.993 873.686,700.069C849.63,684.117 828.488,664.115 811.237,641.038C801.947,653.465 791.529,665.001 780.135,675.492Z" style="fill:rgb(218,241,248);"/>
            </g>
        </g>
        <g transform="matrix(1,0,0,1,-258.016,67.8253)">
            <g transform="matrix(1,0,0,1,405.011,298.439)">
                <g transform="matrix(0.859968,0,0,0.859968,125.252,12.3389)">
                    <g transform="matrix(1,0,0,0.427418,0,132.618)">
                        <path d="M1077.1,266.393C1077.1,247.197 1070.44,231.613 1062.24,231.613L917.026,231.613C908.822,231.613 902.161,247.197 902.161,266.393C902.161,285.588 908.822,301.172 917.026,301.172L1062.24,301.172C1070.44,301.172 1077.1,285.588 1077.1,266.393Z" style="fill:rgb(231,245,250);"/>
                    </g>
                    <g transform="matrix(1.29874,0,0,1.29874,-232.321,-73.6176)">
                        <circle cx="963.235" cy="219.858" r="38.055" style="fill:rgb(231,245,250);"/>
                    </g>
                    <g transform="matrix(0.873887,0,0,0.873887,118.242,27.7582)">
                        <circle cx="963.235" cy="219.858" r="38.055" style="fill:rgb(231,245,250);"/>
                    </g>
                </g>
                <g transform="matrix(-0.737953,0,0,0.737953,1860.61,81.2926)">
                    <g transform="matrix(0.737828,0,0,0.294789,281.223,172.562)">
                        <path d="M1077.1,266.393C1077.1,247.197 1070.88,231.613 1063.21,231.613L916.056,231.613C908.387,231.613 902.161,247.197 902.161,266.393C902.161,285.588 908.387,301.172 916.056,301.172L1063.21,301.172C1070.88,301.172 1077.1,285.588 1077.1,266.393Z" style="fill:rgb(209,236,244);"/>
                    </g>
                    <g transform="matrix(0.754072,0,0,0.754072,295.604,66.8588)">
                        <circle cx="963.235" cy="219.858" r="38.055" style="fill:rgb(209,236,244);"/>
                    </g>
                    <g transform="matrix(0.873887,0,0,0.873887,131.821,42.0092)">
                        <path d="M933.488,243.583C935.495,246.095 937.813,248.348 940.384,250.283C941.636,250.739 942.987,250.988 944.395,250.988L985.118,250.988C992.901,245.504 998.539,237.177 1000.52,227.523C1001.02,225.047 1001.29,222.483 1001.29,219.858C1001.29,198.854 984.238,181.802 963.235,181.802C942.232,181.802 925.18,198.854 925.18,219.858C925.18,228.827 928.289,237.075 933.488,243.583Z" style="fill:rgb(209,236,244);"/>
                    </g>
                </g>
                <path d="M617.92,526.243C613.016,518.768 608.502,511.015 604.407,503.012C594.224,483.116 586.629,461.679 582.069,439.147C589.394,438.494 596.268,436.259 602.344,432.786C611.437,427.589 618.745,419.618 623.112,410.031C625.984,403.726 627.584,396.721 627.584,389.346C627.584,407.737 637.536,423.823 652.344,432.507C659.754,436.853 668.38,439.346 677.584,439.346C686.59,439.346 695.042,436.96 702.344,432.786C717.417,424.17 727.584,407.936 727.584,389.346C727.584,391.339 727.701,393.306 727.929,395.239C727.884,393.286 727.861,391.328 727.861,389.364C727.867,407.691 737.755,423.726 752.482,432.426C759.849,436.779 768.427,439.295 777.584,439.345C777.677,439.345 777.769,439.345 777.861,439.345C786.763,439.297 795.117,436.917 802.344,432.786C813.204,426.578 821.518,416.415 825.317,404.265C826.371,400.893 827.078,397.368 827.394,393.732C827.52,392.286 827.584,390.823 827.584,389.346C827.584,390.605 827.631,391.853 827.723,393.088C827.814,391.853 827.861,390.605 827.861,389.346C827.861,390.597 827.907,391.837 827.997,393.065C828.488,399.726 830.286,406.025 833.136,411.708C837.46,420.333 844.207,427.538 852.482,432.426C859.849,436.779 868.427,439.295 877.584,439.345C877.677,439.345 877.769,439.345 877.861,439.345C885.38,439.304 892.508,437.6 898.896,434.583C900.071,434.028 901.221,433.428 902.344,432.786C917.412,424.173 927.578,407.946 927.584,389.364C927.584,391.328 927.562,393.286 927.517,395.239C927.744,393.306 927.861,391.339 927.861,389.346C927.861,407.68 937.751,423.723 952.482,432.426C959.923,436.822 968.6,439.346 977.861,439.346C982.001,439.346 986.024,438.841 989.872,437.891C994.341,436.787 998.575,435.081 1002.48,432.865C1017.63,424.27 1027.86,407.993 1027.86,389.346C1027.86,407.68 1037.75,423.723 1052.48,432.426C1056.82,434.987 1061.57,436.912 1066.61,438.073C1068.43,438.491 1070.28,438.81 1072.16,439.024C1068.15,458.916 1061.77,477.956 1053.33,495.837C1048.34,506.398 1042.64,516.554 1036.29,526.243L617.92,526.243Z" style="fill:rgb(173,224,241);"/>
                <g transform="matrix(1,0,0,1,0,-22.3722)">
                    <path d="M974.462,365.694C974.462,377.592 964.802,387.252 952.904,387.252C941.006,387.252 931.347,377.592 931.347,365.694" style="fill:none;stroke:rgb(72,33,32);stroke-width:2px;"/>
                </g>
                <g transform="matrix(1,0,0,1,42.9345,-22.3722)">
                    <path d="M974.462,365.694C974.462,377.592 964.802,387.252 952.904,387.252C941.006,387.252 931.347,377.592 931.347,365.694" style="fill:none;stroke:rgb(72,33,32);stroke-width:2px;"/>
                </g>
                <g transform="matrix(1,0,0,1,86.6258,-22.3722)">
                    <path d="M974.462,365.694C974.462,377.592 964.802,387.252 952.904,387.252C941.006,387.252 931.347,377.592 931.347,365.694" style="fill:none;stroke:rgb(72,33,32);stroke-width:2px;"/>
                </g>
                <g transform="matrix(1,0,0,1,131.306,-22.3722)">
                    <path d="M943.051,384.87C936.103,381.29 931.347,374.043 931.347,365.694" style="fill:none;stroke:rgb(72,33,32);stroke-width:2px;"/>
                </g>
                <g transform="matrix(1.76038,0,0,1.76038,-589.777,-221.442)">
                    <circle cx="709.995" cy="245.27" r="28.883" style="fill:rgb(188,206,211);"/>
                </g>
                <g transform="matrix(1.10494,0,0,1.10494,-105.49,-28.7699)">
                    <circle cx="709.995" cy="245.27" r="28.883" style="fill:rgb(214,237,245);"/>
                </g>
                <g transform="matrix(0.84936,0,0,0.84936,115.077,47.8726)">
                    <circle cx="709.995" cy="245.27" r="28.883" style="fill:rgb(231,245,250);"/>
                </g>
                <g>
                    <g transform="matrix(1,0,0,0.617013,0,141.372)">
                        <path d="M931.347,369.129L931.347,333.579" style="fill:none;stroke:rgb(72,33,32);stroke-width:4.81px;"/>
                    </g>
                    <g transform="matrix(1.17401,0,0,1.17401,-159.887,-42.4242)">
                        <circle cx="929.493" cy="329.265" r="4.314" style="fill:rgb(110,23,20);"/>
                    </g>
                </g>
                <g transform="matrix(1,0,0,1,87.0545,0)">
                    <g transform="matrix(1,0,0,0.617013,0,141.372)">
                        <path d="M931.347,369.129L931.347,333.579" style="fill:none;stroke:rgb(72,33,32);stroke-width:4.81px;"/>
                    </g>
                    <g transform="matrix(1.17401,0,0,1.17401,-159.887,-42.4242)">
                        <circle cx="929.493" cy="329.265" r="4.314" style="fill:rgb(110,23,20);"/>
                    </g>
                </g>
                <g transform="matrix(1,0,0,1,130.336,0)">
                    <g transform="matrix(1,0,0,0.617013,0,141.372)">
                        <path d="M931.347,369.129L931.347,333.579" style="fill:none;stroke:rgb(72,33,32);stroke-width:4.81px;"/>
                    </g>
                    <g transform="matrix(1.17401,0,0,1.17401,-159.887,-42.4242)">
                        <circle cx="929.493" cy="329.265" r="4.314" style="fill:rgb(110,23,20);"/>
                    </g>
                </g>
                <g transform="matrix(1,0,0,1,43.1151,0)">
                    <g transform="matrix(1,0,0,0.617013,0,141.372)">
                        <path d="M931.347,369.129L931.347,333.579" style="fill:none;stroke:rgb(72,33,32);stroke-width:4.81px;"/>
                    </g>
                    <g transform="matrix(1.17401,0,0,1.17401,-159.887,-42.4242)">
                        <circle cx="929.493" cy="329.265" r="4.314" style="fill:rgb(110,23,20);"/>
                    </g>
                </g>
                <g transform="matrix(1.21652,0,0,1,-200.501,0)">
                    <path d="M926.006,369.129L1047.95,369.129" style="fill:none;stroke:rgb(92,37,35);stroke-width:5.39px;"/>
                </g>
                <path d="M989.872,369.129L989.872,445.581" style="fill:none;stroke:rgb(92,37,35);stroke-width:8px;stroke-linecap:butt;"/>
                <g transform="matrix(1,0,0,1,76.7424,0)">
                    <path d="M989.872,369.129L989.872,445.581" style="fill:none;stroke:rgb(92,37,35);stroke-width:8px;stroke-linecap:butt;"/>
                </g>
                <g transform="matrix(0.854673,0,0,0.854673,108.675,73.9552)">
                    <g transform="matrix(1,0,0,1,0.775771,0)">
                        <path d="M887.499,293.196C887.499,289.847 886.168,286.635 883.8,284.267C881.432,281.899 878.22,280.568 874.871,280.568C834.652,280.568 709.842,280.568 669.623,280.568C666.274,280.568 663.062,281.899 660.694,284.267C658.326,286.635 656.995,289.847 656.995,293.196C656.995,313.725 656.995,352.071 656.995,352.071L887.499,352.071L887.499,293.196Z" style="fill:rgb(44,75,86);"/>
                    </g>
                    <g transform="matrix(1,0,0,1,54.7066,0)">
                        <path d="M737.904,225.882C737.904,222.223 734.934,219.252 731.275,219.252L718.016,219.252C714.357,219.252 711.386,222.223 711.386,225.882L711.386,287.6C711.386,291.259 714.357,294.23 718.016,294.23L731.275,294.23C734.934,294.23 737.904,291.259 737.904,287.6L737.904,225.882Z" style="fill:rgb(84,123,136);"/>
                    </g>
                    <g transform="matrix(1,0,0,1,0.0634747,0)">
                        <path d="M737.904,225.882C737.904,222.223 734.934,219.252 731.275,219.252L718.016,219.252C714.357,219.252 711.386,222.223 711.386,225.882L711.386,287.6C711.386,291.259 714.357,294.23 718.016,294.23L731.275,294.23C734.934,294.23 737.904,291.259 737.904,287.6L737.904,225.882Z" style="fill:rgb(84,123,136);"/>
                    </g>
                    <g transform="matrix(1,0,0,1,54.7066,-51.4699)">
                        <path d="M711.386,277.352C711.386,273.693 714.357,270.722 718.016,270.722L731.275,270.722C734.934,270.722 737.904,273.693 737.904,277.352L737.904,287.6C737.904,291.259 734.934,294.23 731.275,294.23L718.016,294.23C714.357,294.23 711.386,291.259 711.386,287.6L711.386,277.352Z" style="fill:rgb(104,143,156);"/>
                    </g>
                    <g transform="matrix(1,0,0,1,0.0634747,-51.4699)">
                        <path d="M711.386,277.352C711.386,273.693 714.357,270.722 718.016,270.722L731.275,270.722C734.934,270.722 737.904,273.693 737.904,277.352L737.904,287.6C737.904,291.259 734.934,294.23 731.275,294.23L718.016,294.23C714.357,294.23 711.386,291.259 711.386,287.6L711.386,277.352Z" style="fill:rgb(104,143,156);"/>
                    </g>
                    <g transform="matrix(1,0,0,1,54.7066,-61.9043)">
                        <path d="M711.387,287.693C711.437,284.077 714.388,281.156 718.016,281.156L731.275,281.156C734.903,281.156 737.854,284.077 737.904,287.693C737.854,291.309 734.903,294.23 731.275,294.23L718.016,294.23C714.388,294.23 711.437,291.309 711.387,287.693Z" style="fill:rgb(146,168,175);"/>
                    </g>
                    <g transform="matrix(1,0,0,1,0.0634747,-61.9043)">
                        <path d="M711.387,287.693C711.437,284.077 714.388,281.156 718.016,281.156L731.275,281.156C734.903,281.156 737.854,284.077 737.904,287.693C737.854,291.309 734.903,294.23 731.275,294.23L718.016,294.23C714.388,294.23 711.437,291.309 711.387,287.693Z" style="fill:rgb(146,168,175);"/>
                    </g>
                    <g transform="matrix(-1,-1.22465e-16,1.22465e-16,-1,1575.82,588.46)">
                        <path d="M887.499,307.891L698.34,307.891C692.379,307.891 687.547,303.059 687.547,297.099L687.547,280.568L876.706,280.568C882.667,280.568 887.499,285.4 887.499,291.361L887.499,307.891Z" style="fill:rgb(66,101,113);"/>
                    </g>
                    <g transform="matrix(0.996809,0,0,1.15834,-71.0858,-67.2326)">
                        <path d="M1029.71,347.045C1029.71,343.596 1028.12,340.289 1025.29,337.85C1022.46,335.411 1018.61,334.041 1014.6,334.041C955.242,334.041 738.38,334.041 679.018,334.041C675.011,334.041 671.167,335.411 668.333,337.85C665.5,340.289 663.908,343.596 663.908,347.045C663.908,349.355 663.908,351.914 663.908,354.671C663.908,409.591 715.644,454.112 779.463,454.112C822.44,454.112 871.182,454.112 914.159,454.112C977.978,454.112 1029.71,409.591 1029.71,354.671C1029.71,351.914 1029.71,349.355 1029.71,347.045Z" style="fill:rgb(33,81,48);"/>
                    </g>
                    <path d="M955.342,346.389L590.703,346.389L590.703,332.574C590.703,325.464 596.467,319.7 603.576,319.7L942.469,319.7C949.579,319.7 955.342,325.464 955.342,332.574L955.342,346.389Z" style="fill:rgb(43,99,59);"/>
                    <g transform="matrix(1,0,0,1,20.887,0)">
                        <g transform="matrix(1,0,0,1,-14.0641,-4.23992)">
                            <circle cx="688.247" cy="386.769" r="13.083" style="fill:rgb(226,227,223);"/>
                        </g>
                        <g transform="matrix(1,0,0,1,41.3723,-4.23992)">
                            <circle cx="688.247" cy="386.769" r="13.083" style="fill:rgb(226,227,223);"/>
                        </g>
                        <g transform="matrix(1,0,0,1,94.6759,-4.23992)">
                            <circle cx="688.247" cy="386.769" r="13.083" style="fill:rgb(226,227,223);"/>
                        </g>
                        <g transform="matrix(1,0,0,1,141.841,-4.23992)">
                            <circle cx="688.247" cy="386.769" r="13.083" style="fill:rgb(226,227,223);"/>
                        </g>
                    </g>
                </g>
                <g transform="matrix(1.04824,0,0,1.04824,-105.863,-95.3615)">
                    <path d="M690.475,592.998C685.797,585.867 681.49,578.471 677.583,570.837C667.869,551.856 660.624,531.405 656.273,509.91C653.167,494.561 651.536,478.678 651.536,462.418C651.542,480.146 661.24,495.626 675.615,503.842C682.58,507.824 690.644,510.1 699.235,510.1C704.243,510.1 709.071,509.327 713.608,507.893C717.025,506.813 720.277,505.358 723.314,503.576C737.44,495.292 746.934,479.946 746.934,462.401C746.934,480.136 756.634,495.623 771.013,503.842C777.978,507.824 786.042,510.1 794.633,510.1C803.468,510.1 811.745,507.693 818.844,503.499C832.897,495.196 842.332,479.892 842.332,462.401C842.332,480.136 852.032,495.623 866.411,503.843C873.377,507.824 881.44,510.1 890.031,510.1C898.866,510.1 907.143,507.693 914.242,503.499C928.295,495.196 937.73,479.892 937.73,462.401C937.73,479.661 946.917,494.792 960.664,503.167C961.042,503.397 961.424,503.622 961.809,503.843C968.775,507.824 976.838,510.1 985.429,510.1C994.264,510.1 1002.54,507.693 1009.64,503.499C1023.69,495.196 1033.13,479.892 1033.13,462.401C1033.13,474.625 1037.74,485.781 1045.31,494.226C1048.76,498.07 1052.82,501.352 1057.34,503.918C1064.27,507.853 1072.29,510.1 1080.83,510.1C1089.66,510.1 1097.94,507.693 1105.04,503.499C1110.25,500.42 1114.82,496.379 1118.52,491.621C1124.79,483.551 1128.52,473.417 1128.53,462.418C1128.53,478.637 1126.9,494.48 1123.81,509.793C1119.98,528.77 1113.89,546.934 1105.84,563.992C1101.09,574.066 1095.65,583.755 1089.59,592.998L690.475,592.998Z" style="fill:rgb(200,233,246);"/>
                </g>
                <g transform="matrix(0.825542,0,0,0.825542,81.6865,60.274)">
                    <path d="M649.554,564.44C643.614,555.385 638.146,545.994 633.185,536.3C649.599,528.098 660.883,511.128 660.883,491.545C660.883,519.14 683.287,541.545 710.883,541.545C738.478,541.545 760.883,519.14 760.883,491.545C760.883,494.753 761.185,497.891 761.764,500.931C761.649,497.823 761.591,494.699 761.591,491.563C761.601,519.032 783.81,541.353 811.237,541.543C838.664,541.353 860.873,519.032 860.883,491.563C860.883,494.699 860.825,497.823 860.71,500.931C861.289,497.891 861.591,494.753 861.591,491.545C861.591,519.14 883.996,541.545 911.591,541.545C939.187,541.545 961.591,519.14 961.591,491.545C961.591,519.14 983.996,541.545 1011.59,541.545C1039.19,541.545 1061.59,519.14 1061.59,491.545C1061.59,519.14 1084,541.545 1111.59,541.545C1139.19,541.545 1161.59,519.14 1161.59,491.545C1161.59,505.71 1167.5,518.508 1176.97,527.609C1170.94,540.401 1164.03,552.704 1156.33,564.44L649.554,564.44Z" style="fill:rgb(218,241,248);"/>
                </g>
            </g>
            <g transform="matrix(0.876758,0,0,1,208.9,283.905)">
                <path d="M805.117,540L1456.67,540" style="fill:none;stroke:rgb(252,253,249);stroke-width:2.13px;stroke-linecap:butt;"/>
            </g>
            <g transform="matrix(0.0337606,0,0,1,1480.67,283.905)">
                <path d="M805.117,540L1456.67,540" style="fill:none;stroke:rgb(252,253,249);stroke-width:2.83px;stroke-linecap:butt;"/>
            </g>
            <g transform="matrix(0.0138038,0,0,1,1539.69,283.905)">
                <path d="M805.117,540L1456.67,540" style="fill:none;stroke:rgb(252,253,249);stroke-width:2.83px;stroke-linecap:butt;"/>
            </g>
        </g>
    </g>
</svg>
